<svg id="Layer_1" data-name="Layer 1" xmlns="http://www.w3.org/2000/svg" viewBox="0 0 56.08 31.21"><defs><style>.cls-1{fill:#4caf4d;}.cls-2{fill:#fff;}.cls-3{fill:#f1cc56;}.cls-4{fill:#606161;}</style></defs><title>1</title><path class="cls-1" d="M14.69,40.15a5,5,0,0,0-4.88,4.68V60.35a2.54,2.54,0,0,0,2.54,2.54H15.2a2.55,2.55,0,0,0,2.55-2.54V39.85Zm2.16,6.1a17.49,17.49,0,0,0-3.64.71,5.8,5.8,0,0,0-1.6.83,2.11,2.11,0,0,0-.52.63c-.06.12-.09.26-.14.39,0,.42-.1.85-.07,1.28-.1-1.31-.17-3,1-3.85a11.23,11.23,0,0,1,5-1.38C16.85,44.87,16.94,46.23,16.85,46.25Zm0,3.4a17.15,17.15,0,0,0-3.63.71,5.79,5.79,0,0,0-1.6.83,1.88,1.88,0,0,0-.53.63c-.06.13-.09.26-.14.39,0,.42-.1.86-.07,1.28-.1-1.31-.17-3,1-3.84a11.16,11.16,0,0,1,5-1.39C16.82,48.27,16.91,49.64,16.82,49.65Zm-5-6.24a11.37,11.37,0,0,1,5-1.39c-.07,0,0,1.38-.07,1.38a16.78,16.78,0,0,0-3.64.73,5.31,5.31,0,0,0-1.6.83,2,2,0,0,0-.52.62,3,3,0,0,0-.14.39c0,.43-.1.86-.07,1.28C10.69,46,10.62,44.22,11.81,43.41Zm-1,12.92c-.1-1.31-.18-3,1-3.84a11.37,11.37,0,0,1,5-1.39c-.07,0,0,1.38-.07,1.39a16.65,16.65,0,0,0-3.64.72,5.64,5.64,0,0,0-1.6.82,2,2,0,0,0-.52.63,3,3,0,0,0-.14.39C10.91,55.47,10.8,55.91,10.83,56.33ZM17,56a17.46,17.46,0,0,0-3.65.71,5.61,5.61,0,0,0-1.59.83,2,2,0,0,0-.53.63,3,3,0,0,0-.13.39c0,.2,0,.4,0,.6.53,1,2.55.73,3.32.2a6,6,0,0,0,2.06-3c0,.32.13,1.14.15,1.24,0-.08-.1-1-.14-1.26,0,0,0-.09.05-.13a1.18,1.18,0,0,0,.06.63c0-.18,0-.35.07-.53-.07.46.23.91.16,1.38a15.59,15.59,0,0,0-.2,3.12c0-.33-.14-.91-.15-1.33s0-.91,0-1.37c-.58,1.41-1.5,2.93-3.12,3.1-.69.07-1.89.09-2.18-.72A4.87,4.87,0,0,1,11,58.91v0h0v-.17a1.41,1.41,0,0,0,0,.2v0a3.28,3.28,0,0,1,1.07-3,11.19,11.19,0,0,1,5-1.38C17,54.62,17.12,56,17,56Z" transform="translate(-1.96 -31.68)"/><path class="cls-1" d="M16.63,57.55c0-.1-.11-.92-.15-1.24a1.09,1.09,0,0,0,0-.13.42.42,0,0,1,0,.11C16.53,56.6,16.63,57.47,16.63,57.55Z" transform="translate(-1.96 -31.68)"/><path class="cls-2" d="M16.63,57.55c0-.1-.11-.92-.15-1.24v0C16.53,56.6,16.63,57.47,16.63,57.55Z" transform="translate(-1.96 -31.68)"/><path class="cls-3" d="M2.44,57.55s.14-1.37.15-1.37-.14,1.37-.15,1.37Z" transform="translate(-1.96 -31.68)"/><path class="cls-4" d="M8.21,45.87c0-.54.15.46,0,.15-.06-.14-.08-.3-.15-.44A2.15,2.15,0,0,0,7.54,45a5.27,5.27,0,0,0-1.6-.82,16.65,16.65,0,0,0-3.64-.72c-.09,0,0-1.38-.07-1.39a11.24,11.24,0,0,1,5,1.39c1.2.81,1.12,2.53,1,3.84,0-.46-.1-.93-.06-1.38Z" transform="translate(-1.96 -31.68)"/><path class="cls-4" d="M8.11,48.7c.05-.53.16.47,0,.16A3.89,3.89,0,0,0,8,48.42a2,2,0,0,0-.52-.63A5.54,5.54,0,0,0,5.85,47a17.26,17.26,0,0,0-3.64-.72c-.09,0,0-1.37-.07-1.38a11.36,11.36,0,0,1,5,1.38c1.2.82,1.12,2.54,1,3.85,0-.46-.1-.93-.07-1.39Z" transform="translate(-1.96 -31.68)"/><path class="cls-4" d="M8.14,52.11c0-.54.16.46,0,.15A3.89,3.89,0,0,0,8,51.82a2,2,0,0,0-.52-.63,5.54,5.54,0,0,0-1.6-.83,17.24,17.24,0,0,0-3.64-.71c-.09,0,0-1.38-.07-1.39a11.24,11.24,0,0,1,5,1.39c1.2.81,1.12,2.53,1,3.84,0-.46-.1-.93-.07-1.38Z" transform="translate(-1.96 -31.68)"/><path class="cls-4" d="M8.17,55c0-.54.16.46,0,.15-.07-.14-.09-.3-.16-.44A2,2,0,0,0,7.5,54a5.51,5.51,0,0,0-1.6-.82,16.65,16.65,0,0,0-3.64-.72c-.08,0,0-1.38-.06-1.39a11.29,11.29,0,0,1,5,1.39c1.2.81,1.13,2.54,1,3.84,0-.45-.11-.93-.07-1.38Z" transform="translate(-1.96 -31.68)"/><path class="cls-4" d="M2,54.61A11.24,11.24,0,0,1,7,56a3.29,3.29,0,0,1,1.07,3v0a1.33,1.33,0,0,0,0-.2.91.91,0,0,1,0,.17h0a4.83,4.83,0,0,1-.19,1.53c-.3.82-1.49.8-2.19.72-1.62-.16-2.54-1.69-3.12-3.1,0,.46,0,.92,0,1.37s-.15,1-.16,1.33a16.35,16.35,0,0,0-.19-3.12c-.07-.47.23-.92.15-1.38,0,.18,0,.35.07.53a1,1,0,0,0,.06-.63,6.38,6.38,0,0,0,2.12,3.2c.78.53,2.79.83,3.33-.2a3,3,0,0,1,0-.6,3,3,0,0,0-.14-.39,2,2,0,0,0-.52-.63,5.8,5.8,0,0,0-1.6-.83A17.38,17.38,0,0,0,2,56C1.94,56,2,54.62,2,54.61Z" transform="translate(-1.96 -31.68)"/><path class="cls-1" d="M33.14,41.38H28.85v3h3.94v2.22H28.85v4.72H26.11V39.15h7v2.23Z" transform="translate(-1.96 -31.68)"/><path class="cls-1" d="M43.56,41.38H39.27v3h3.94v2.22H39.27v4.72H36.53V39.15h7v2.23Z" transform="translate(-1.96 -31.68)"/><path class="cls-1" d="M56.7,51.31h-3l-.86-2.7H48.53l-.86,2.7h-3l4.43-12.16h3.24Zm-4.48-4.8-1.3-4.09a5.12,5.12,0,0,1-.21-1.1h-.06a4.35,4.35,0,0,1-.22,1.06l-1.32,4.13Z" transform="translate(-1.96 -31.68)"/><path class="cls-3" d="M9,42.39l1.52-2.85a5.09,5.09,0,0,0,.07-4.68L9,31.68,7.53,34.82a5.13,5.13,0,0,0,0,4.43Z" transform="translate(-1.96 -31.68)"/><path class="cls-4" d="M26.41,54.6v1.56h1.42v.24H26.41v1.79h-.26V54.36h1.79v.25H26.41Z" transform="translate(-1.96 -31.68)"/><path class="cls-4" d="M30.64,58.19l-.5-1.12a1.26,1.26,0,0,0-.32-.47.62.62,0,0,0-.39-.12H29v1.71h-.26V54.36h1.06a1.06,1.06,0,0,1,.79.28.91.91,0,0,1,.29.72,1,1,0,0,1-.23.69,1.18,1.18,0,0,1-.67.36h0a1.05,1.05,0,0,1,.45.55l.56,1.22ZM29,54.6v1.64h.66A1,1,0,0,0,30.3,56a.77.77,0,0,0,.26-.63.75.75,0,0,0-.23-.57,1,1,0,0,0-.66-.21Z" transform="translate(-1.96 -31.68)"/><path class="cls-4" d="M31.72,58.19V54.36h1.79v.25H32v1.53H33.4v.24H32V58h1.61v.24Z" transform="translate(-1.96 -31.68)"/><path class="cls-4" d="M34.45,58.19V54.36h1.79v.25H34.72v1.53h1.41v.24H34.72V58h1.61v.24Z" transform="translate(-1.96 -31.68)"/><path class="cls-4" d="M38.94,54.6v1.56h1.42v.24H38.94v1.79h-.26V54.36h1.79v.25H38.94Z" transform="translate(-1.96 -31.68)"/><path class="cls-4" d="M42.79,58.25a1.67,1.67,0,0,1-1.29-.53,2,2,0,0,1-.48-1.4,2.12,2.12,0,0,1,.49-1.47,1.72,1.72,0,0,1,1.36-.55,1.62,1.62,0,0,1,1.25.53,2,2,0,0,1,.48,1.39,2.17,2.17,0,0,1-.49,1.49A1.7,1.7,0,0,1,42.79,58.25Zm0-3.71a1.41,1.41,0,0,0-1.1.48,1.81,1.81,0,0,0-.43,1.27,1.84,1.84,0,0,0,.41,1.25,1.34,1.34,0,0,0,1.09.47,1.43,1.43,0,0,0,1.12-.46,2.23,2.23,0,0,0,0-2.56A1.41,1.41,0,0,0,42.82,54.54Z" transform="translate(-1.96 -31.68)"/><path class="cls-4" d="M47.34,58.19l-.51-1.12a1.26,1.26,0,0,0-.32-.47.62.62,0,0,0-.39-.12h-.48v1.71h-.26V54.36h1.06a1.1,1.1,0,0,1,.8.28.94.94,0,0,1,.28.72,1,1,0,0,1-.23.69,1.18,1.18,0,0,1-.67.36h0a1.05,1.05,0,0,1,.45.55l.56,1.22Zm-1.7-3.59v1.64h.66A1,1,0,0,0,47,56a.79.79,0,0,0,.25-.63.71.71,0,0,0-.23-.57,1,1,0,0,0-.66-.21Z" transform="translate(-1.96 -31.68)"/><path class="cls-4" d="M52.4,58.19,52,57H50.3l-.44,1.19h-.29L51,54.36h.25l1.42,3.83ZM51.22,55a1.24,1.24,0,0,1,0-.16.93.93,0,0,1,0-.13h0A2.55,2.55,0,0,1,51,55l-.65,1.77h1.48Z" transform="translate(-1.96 -31.68)"/><path class="cls-4" d="M53.34,58.19V54.36h.27V58h1.53v.24Z" transform="translate(-1.96 -31.68)"/><path class="cls-4" d="M55.84,58.19V54.36h.27V58h1.53v.24Z" transform="translate(-1.96 -31.68)"/><path class="cls-4" d="M25.88,62.29V60.53H26v1.76Z" transform="translate(-1.96 -31.68)"/><path class="cls-4" d="M27.7,62.29l-1.05-1.42a.41.41,0,0,1,0-.09l0,0h0a.15.15,0,0,1,0,.07v1.46h-.12V60.53h.09l1,1.41.07.11h0s0-.1,0-.14V60.53h.13v1.76Z" transform="translate(-1.96 -31.68)"/><path class="cls-4" d="M28.72,60.64v1.65H28.6V60.64h-.51v-.11h1.14v.11Z" transform="translate(-1.96 -31.68)"/><path class="cls-4" d="M29.52,62.29V60.53h.83v.11h-.7v.71h.65v.11h-.65v.72h.74v.11Z" transform="translate(-1.96 -31.68)"/><path class="cls-4" d="M31.68,62.29l-.23-.52a.63.63,0,0,0-.15-.21.24.24,0,0,0-.18-.05H30.9v.78h-.12V60.53h.49a.49.49,0,0,1,.37.13.42.42,0,0,1,.13.33.45.45,0,0,1-.11.32.49.49,0,0,1-.3.16h0c.07,0,.13.11.2.25l.26.56Zm-.78-1.65v.76h.31a.48.48,0,0,0,.32-.11.37.37,0,0,0,.12-.29.33.33,0,0,0-.11-.26.41.41,0,0,0-.31-.1Z" transform="translate(-1.96 -31.68)"/><path class="cls-4" d="M33.42,62.29l-1-1.42a.47.47,0,0,1-.06-.09l0,0h0v1.53h-.12V60.53h.09l1,1.41a1,1,0,0,1,.08.11h0V60.53h.12v1.76Z" transform="translate(-1.96 -31.68)"/><path class="cls-4" d="M35.11,62.29l-.2-.55h-.77l-.2.55h-.13l.66-1.76h.12l.66,1.76Zm-.54-1.47a.24.24,0,0,1,0-.08.14.14,0,0,1,0-.06h0a.33.33,0,0,1,0,.13l-.29.82h.68Z" transform="translate(-1.96 -31.68)"/><path class="cls-4" d="M35.75,60.64v1.65h-.12V60.64h-.51v-.11h1.14v.11Z" transform="translate(-1.96 -31.68)"/><path class="cls-4" d="M36.56,62.29V60.53h.12v1.76Z" transform="translate(-1.96 -31.68)"/><path class="cls-4" d="M37.85,62.32a.74.74,0,0,1-.59-.25.91.91,0,0,1-.22-.64,1,1,0,0,1,.23-.68.8.8,0,0,1,.62-.25.73.73,0,0,1,.57.24.92.92,0,0,1,.22.64,1,1,0,0,1-.22.69A.76.76,0,0,1,37.85,62.32Zm0-1.71a.67.67,0,0,0-.51.22.88.88,0,0,0-.2.59.8.8,0,0,0,.19.57.62.62,0,0,0,.5.22.67.67,0,0,0,.52-.21.9.9,0,0,0,.19-.6.81.81,0,0,0-.19-.58A.63.63,0,0,0,37.87,60.61Z" transform="translate(-1.96 -31.68)"/><path class="cls-4" d="M40.29,62.29l-1-1.42-.06-.09v0h0s0,0,0,.07v1.46H39V60.53h.1l1,1.41.07.11h0s0-.1,0-.14V60.53h.12v1.76Z" transform="translate(-1.96 -31.68)"/><path class="cls-4" d="M42,62.29l-.2-.55H41l-.2.55h-.14l.67-1.76h.11l.66,1.76Zm-.54-1.47s0,0,0-.08a.14.14,0,0,0,0-.06h0l0,.13-.3.82h.68Z" transform="translate(-1.96 -31.68)"/><path class="cls-4" d="M42.41,62.29V60.53h.12v1.65h.71v.11Z" transform="translate(-1.96 -31.68)"/><path class="cls-4" d="M44.25,62.29V60.53h.12v1.76Z" transform="translate(-1.96 -31.68)"/><path class="cls-4" d="M46.07,62.29l-1-1.42L45,60.78v0h0v1.53h-.12V60.53h.1l1,1.41.07.11h0a.71.71,0,0,1,0-.14V60.53h.12v1.76Z" transform="translate(-1.96 -31.68)"/><path class="cls-4" d="M47.16,62.29h-.09l-.64-1.76h.14L47.08,62a1.24,1.24,0,0,1,0,.16h0a.47.47,0,0,1,0-.16l.54-1.42h.13Z" transform="translate(-1.96 -31.68)"/><path class="cls-4" d="M48.12,62.29V60.53H49v.11h-.7v.71h.65v.11h-.65v.72H49v.11Z" transform="translate(-1.96 -31.68)"/><path class="cls-4" d="M49.33,62.23v-.14a.68.68,0,0,0,.38.12.46.46,0,0,0,.31-.09.27.27,0,0,0,.11-.23.31.31,0,0,0-.07-.22,1.48,1.48,0,0,0-.31-.22,1,1,0,0,1-.34-.26.44.44,0,0,1,.07-.56.56.56,0,0,1,.39-.13,1.12,1.12,0,0,1,.31,0v.13a.72.72,0,0,0-.33-.07.41.41,0,0,0-.28.09.3.3,0,0,0-.11.23.33.33,0,0,0,.08.22,1.58,1.58,0,0,0,.31.22,1,1,0,0,1,.32.24.4.4,0,0,1,.09.25.42.42,0,0,1-.14.33.57.57,0,0,1-.4.13l-.21,0Z" transform="translate(-1.96 -31.68)"/><path class="cls-4" d="M51.11,60.64v1.65H51V60.64h-.51v-.11h1.14v.11Z" transform="translate(-1.96 -31.68)"/><path class="cls-4" d="M53.44,62.29V61s0-.12,0-.26h0a.91.91,0,0,1-.06.16l-.63,1.35h0l-.63-1.35a1.56,1.56,0,0,1-.05-.16h0A1.77,1.77,0,0,1,52,61v1.28h-.12V60.53H52L52.69,62v0l0,0,0,.07h0v0l.05-.11.64-1.41h.11v1.76Z" transform="translate(-1.96 -31.68)"/><path class="cls-4" d="M54,62.29V60.53h.83v.11h-.71v.71h.66v.11h-.66v.72h.75v.11Z" transform="translate(-1.96 -31.68)"/><path class="cls-4" d="M56.52,62.29l-1.05-1.42-.06-.09v0h0v1.53h-.12V60.53h.09l1,1.41.07.11h0a.71.71,0,0,1,0-.14V60.53h.12v1.76Z" transform="translate(-1.96 -31.68)"/><path class="cls-4" d="M57.53,60.64v1.65h-.12V60.64H56.9v-.11H58v.11Z" transform="translate(-1.96 -31.68)"/></svg>