<svg id="Layer_1" data-name="Layer 1" xmlns="http://www.w3.org/2000/svg" viewBox="0 0 710.93 395.65"><defs><style>.cls-1{fill:#f1cc56;}.cls-2{fill:#4caf4d;}.cls-3{fill:#fff;}</style></defs><title>2</title><path class="cls-1" d="M161.36,107.32c-28.91,0-61.88,25.21-61.88,59.38V363.39a32.28,32.28,0,0,0,32.27,32.26h36.12a32.27,32.27,0,0,0,32.26-32.26V103.57Zm27.46,77.29c-15.56,1.9-31.31,3.8-46.17,9.1-7.05,2.55-14.41,5.75-20.26,10.5a24.91,24.91,0,0,0-6.65,7.95c-.8,1.6-1.1,3.3-1.75,4.9.2,5.4-1.3,10.9-.9,16.26-1.3-16.56-2.2-38.42,13-48.72,18.36-12.46,42.22-15,63.63-17.56C188.82,167.15,189.92,184.46,188.82,184.61Zm-.4,43.12c-15.56,1.9-31.31,3.8-46.12,9.1-7.1,2.55-14.41,5.75-20.26,10.5a24.44,24.44,0,0,0-6.7,7.95,47.49,47.49,0,0,0-1.7,4.9c.15,5.4-1.3,10.91-.9,16.26-1.3-16.56-2.25-38.42,13-48.72,18.36-12.46,42.17-15,63.58-17.56C188.42,210.27,189.52,227.58,188.42,227.73Zm-63.53-79.09c18.36-12.46,42.22-15,63.63-17.56-.85.1.25,17.41-.85,17.51-15.56,1.9-31.31,3.85-46.17,9.15-7.05,2.5-14.41,5.7-20.26,10.51a24.91,24.91,0,0,0-6.65,7.95,44.81,44.81,0,0,0-1.75,5c.15,5.4-1.3,10.86-.9,16.16C110.63,180.81,109.73,159,124.89,148.64ZM112.44,312.47c-1.3-16.56-2.25-38.42,13-48.72,18.31-12.46,42.17-15,63.58-17.56-.85.1.25,17.41-.85,17.56-15.56,1.9-31.31,3.8-46.17,9.1-7.05,2.55-14.36,5.75-20.26,10.51a24.91,24.91,0,0,0-6.65,7.95,47.49,47.49,0,0,0-1.7,4.9C113.49,301.61,112,307.12,112.44,312.47Zm78.68-4.25c-15.56,1.9-31.31,3.8-46.17,9.1-7,2.55-14.36,5.75-20.26,10.5a24.91,24.91,0,0,0-6.65,7.95,47.49,47.49,0,0,0-1.7,4.9,66.35,66.35,0,0,1-.5,7.7c6.75,13,32.32,9.25,42.17,2.55,13.21-8.95,20.66-24.16,26.11-38.72.4,4.1,1.55,14.46,1.8,15.66,0-1-1.2-12.06-1.7-16,.2-.55.4-1,.6-1.6-.8,2.25,0,5.1.8,7.95.25-2.2.55-4.45.9-6.7-1,5.8,2.85,11.61,1.95,17.46A202.86,202.86,0,0,0,186,368.58c-.15-4.15-1.8-11.56-2-16.81-.2-5.75-.1-11.56.15-17.36-7.3,17.86-19,37.17-39.47,39.32-8.8.9-24,1.15-27.71-9.2-2-5.65-2.45-13.11-2.4-19.41a.18.18,0,0,1,0-.15s0,0,0,0v-2.2c0,.85,0,1.7.1,2.55a1.27,1.27,0,0,1,.1.35c-.3-14.16,1.65-29.41,13.61-37.52,18.31-12.46,42.17-15,63.58-17.56C191.12,290.76,192.22,308.07,191.12,308.22Z"/><path class="cls-2" d="M185.92,327.88c-.25-1.2-1.4-11.56-1.8-15.66-.1-.9-.15-1.5-.15-1.65a11.22,11.22,0,0,1,.25,1.35C184.72,315.82,185.92,326.88,185.92,327.88Z"/><path class="cls-3" d="M185.92,327.88c-.25-1.2-1.4-11.56-1.8-15.66a.71.71,0,0,0,.1-.3C184.72,315.82,185.92,326.88,185.92,327.88Z"/><path class="cls-1" d="M6,328c-.13,0,1.81-17.46,2-17.45S6.17,328,6,328Z"/><path class="cls-3" d="M79.18,179.8c.53-6.75,2,5.91.2,1.94-.81-1.79-1.06-3.75-2-5.55a24.93,24.93,0,0,0-6.67-7.95c-5.87-4.77-13.19-8-20.26-10.51-14.83-5.3-30.59-7.22-46.15-9.12-1.11-.13,0-17.43-.86-17.54,21.42,2.61,45.26,5.09,63.6,17.55,15.17,10.31,14.25,32.18,13,48.7.47-5.75-1.3-11.72-.84-17.52Z"/><path class="cls-3" d="M78,215.78c.53-6.75,2,5.91.2,1.94-.81-1.79-1.06-3.75-2-5.55a24.93,24.93,0,0,0-6.67-7.95c-5.87-4.77-13.19-8-20.26-10.51-14.83-5.3-30.59-7.22-46.15-9.12-1.11-.13,0-17.43-.86-17.54,21.42,2.61,45.26,5.09,63.6,17.55,15.17,10.31,14.25,32.18,13,48.7.47-5.75-1.29-11.72-.84-17.52Z"/><path class="cls-3" d="M78.4,258.9c.53-6.75,2,5.91.2,1.94-.81-1.79-1.06-3.75-2-5.55A24.93,24.93,0,0,0,70,247.34c-5.87-4.77-13.19-8-20.26-10.51-14.83-5.3-30.59-7.22-46.15-9.12-1.11-.13,0-17.43-.86-17.54,21.42,2.61,45.26,5.09,63.6,17.55,15.17,10.31,14.25,32.18,13,48.7.47-5.75-1.29-11.72-.84-17.52Z"/><path class="cls-3" d="M78.71,294.92c.53-6.75,2,5.91.2,1.94-.81-1.79-1.06-3.75-2-5.55a24.93,24.93,0,0,0-6.67-7.95c-5.87-4.77-13.19-8-20.26-10.51-14.83-5.3-30.59-7.22-46.15-9.12-1.09-.13,0-17.43-.85-17.53,21.42,2.61,45.26,5.09,63.6,17.55,15.17,10.31,14.25,32.18,13,48.7.46-5.76-1.3-11.73-.85-17.53Z"/><path class="cls-3" d="M0,290.67c21.42,2.61,45.26,5.09,63.6,17.55,11.93,8.1,13.9,23.35,13.57,37.54,0-.12.09-.23.12-.36a24.15,24.15,0,0,0,.09-2.55c0,.71,0,1.45,0,2.2a.14.14,0,0,1,0-.06c0,.05,0,.11,0,.16,0,6.29-.38,13.73-2.4,19.37-3.72,10.39-18.91,10.13-27.76,9.21-20.48-2.12-32.16-21.47-39.47-39.3.28,5.79.36,11.57.15,17.35-.19,5.28-1.8,12.66-1.95,16.82A206.28,206.28,0,0,0,3.53,329c-.93-5.85,2.87-11.65,2-17.45.36,2.25.62,4.49.9,6.73.86-2.89,1.6-5.72.77-8,5.53,15.11,13.07,31.24,26.82,40.59,9.86,6.71,35.41,10.43,42.18-2.54a57.1,57.1,0,0,1-.5-7.7,46.13,46.13,0,0,0-1.73-4.9,24.93,24.93,0,0,0-6.67-7.95c-5.87-4.77-13.19-8-20.26-10.51C32.16,312,16.4,310.09.84,308.2-.25,308.07.85,290.77,0,290.67Z"/><path class="cls-3" d="M395.28,123H340.89v37.83h50V189h-50v59.87H306.17V94.72h89.1V123Z"/><path class="cls-3" d="M527.36,123H473v37.83h50V189H473v59.87H438.25V94.72h89.1V123Z"/><path class="cls-3" d="M693.94,248.85H656.1l-11-34.29H590.32l-10.86,34.29H541.84L598,94.72h41.17ZM637.19,187.9l-16.55-51.81a67.26,67.26,0,0,1-2.58-13.87h-.86a58.68,58.68,0,0,1-2.69,13.44L597.74,187.9Z"/><path class="cls-1" d="M89.75,135.7l19.3-36.06a64.62,64.62,0,0,0,.82-59.4L89.75,0,70.59,39.82a64.6,64.6,0,0,0,0,56.06Z"/><path class="cls-3" d="M310,290.58v19.78H327.9v3H310V336h-3.35V287.51h22.66v3.08H310Z"/><path class="cls-3" d="M363.64,336l-6.46-14.2q-2-4.4-4-5.9a8.09,8.09,0,0,0-5-1.5h-6V336h-3.35V287.51h13.46q6.42,0,10.09,3.47a12,12,0,0,1,3.67,9.15,13,13,0,0,1-3,8.76,14,14,0,0,1-8.42,4.53v.13q2.88,1.15,5.61,7l7.2,15.45Zm-21.47-45.42v20.76h8.35c3.7,0,6.63-1,8.81-2.91a10.13,10.13,0,0,0,3.26-8,9.2,9.2,0,0,0-2.94-7.25q-2.94-2.62-8.42-2.62Z"/><path class="cls-3" d="M377.27,336V287.51h22.66v3.08H380.62V310h17.92v3H380.62V333H401V336Z"/><path class="cls-3" d="M411.9,336V287.51h22.66v3.08H415.25V310h17.92v3H415.25V333h20.42V336Z"/><path class="cls-3" d="M468.84,290.58v19.78h17.92v3H468.84V336h-3.35V287.51h22.66v3.08H468.84Z"/><path class="cls-3" d="M517.64,336.85q-10.27,0-16.38-6.83t-6.1-17.75q0-11.59,6.27-18.58t17.13-7q9.81,0,15.88,6.71t6.07,17.6q0,12-6.22,18.94T517.64,336.85Zm.34-47.11a17.84,17.84,0,0,0-13.92,6.12q-5.46,6.12-5.46,16t5.17,15.94q5.18,5.94,13.8,5.94,9,0,14.24-5.87t5.24-16.35q0-10.28-5.12-16.05T518,289.74Z"/><path class="cls-3" d="M575.23,336l-6.46-14.2q-2-4.4-4-5.9a8.09,8.09,0,0,0-5-1.5h-6V336h-3.35V287.51h13.46q6.42,0,10.09,3.47a12,12,0,0,1,3.67,9.15,13,13,0,0,1-3,8.76,14,14,0,0,1-8.42,4.53v.13q2.88,1.15,5.61,7L579,336Zm-21.47-45.42v20.76h8.35c3.7,0,6.63-1,8.81-2.91a10.13,10.13,0,0,0,3.26-8,9.2,9.2,0,0,0-2.94-7.25q-2.94-2.62-8.42-2.62Z"/><path class="cls-3" d="M639.41,336l-5.55-15.08h-21L607.29,336H603.6l18.29-48.49h3.18L643.17,336Zm-14.88-40.58a18.17,18.17,0,0,1-.61-2c-.16-.56-.33-1.13-.51-1.69h-.14a30.37,30.37,0,0,1-1.12,3.62L614,317.84h18.7Z"/><path class="cls-3" d="M651.38,336V287.51h3.35V333h19.44v3Z"/><path class="cls-3" d="M683.1,336V287.51h3.35V333h19.44v3Z"/><path class="cls-3" d="M303.27,388V365.7h1.54V388h-1.54Z"/><path class="cls-3" d="M326.32,388,313,370a11.37,11.37,0,0,1-.72-1.09l-.2-.31H312c0,.27,0,.6,0,1V388h-1.54V365.7h1.18l13.2,17.89c.29.39.61.87.95,1.43h.08c-.05-.73-.08-1.35-.08-1.87V365.7h1.54V388h-1.08Z"/><path class="cls-3" d="M339.2,367.12V388h-1.53V367.12h-6.45V365.7h14.42v1.42Z"/><path class="cls-3" d="M349.44,388V365.7h10.43v1.42H351v8.95h8.25v1.4H351v9.15h9.4V388Z"/><path class="cls-3" d="M376.81,388l-3-6.54a7.07,7.07,0,0,0-1.84-2.72,3.72,3.72,0,0,0-2.3-.69h-2.77V388h-1.54V365.7h6.2a6.49,6.49,0,0,1,4.65,1.6,5.51,5.51,0,0,1,1.69,4.21,6,6,0,0,1-1.38,4,6.52,6.52,0,0,1-3.88,2.09v.06c.88.35,1.74,1.43,2.58,3.22l3.32,7.11Zm-9.88-20.9v9.56h3.84a5.92,5.92,0,0,0,4.06-1.34,4.67,4.67,0,0,0,1.5-3.67,4.25,4.25,0,0,0-1.35-3.34,5.65,5.65,0,0,0-3.88-1.21Z"/><path class="cls-3" d="M398.87,388l-13.29-18a11.37,11.37,0,0,1-.72-1.09l-.2-.31h-.06c0,.27,0,.6,0,1V388h-1.54V365.7h1.18l13.2,17.89c.29.39.61.87.95,1.43h.08c-.05-.73-.08-1.35-.08-1.87V365.7H400V388h-1.09Z"/><path class="cls-3" d="M420.23,388l-2.55-6.94H408L405.45,388h-1.7l8.42-22.33h1.46L422,388Zm-6.85-18.68a6.87,6.87,0,0,1-.28-.92c-.07-.26-.15-.52-.23-.78h-.06c-.18.69-.35,1.24-.51,1.67l-3.75,10.35h8.61Z"/><path class="cls-3" d="M428.33,367.12V388H426.8V367.12h-6.45V365.7h14.42v1.42Z"/><path class="cls-3" d="M438.57,388V365.7h1.54V388h-1.54Z"/><path class="cls-3" d="M455,388.41a9.59,9.59,0,0,1-7.54-3.15,11.82,11.82,0,0,1-2.81-8.17,12.28,12.28,0,0,1,2.89-8.55,10.05,10.05,0,0,1,7.88-3.21,9.39,9.39,0,0,1,7.31,3.09,11.62,11.62,0,0,1,2.79,8.1c0,3.7-1,6.6-2.87,8.72A9.77,9.77,0,0,1,455,388.41Zm.15-21.68a8.22,8.22,0,0,0-6.41,2.82,10.65,10.65,0,0,0-2.51,7.38,10.77,10.77,0,0,0,2.38,7.34A8,8,0,0,0,455,387a8.33,8.33,0,0,0,6.55-2.7q2.41-2.7,2.41-7.53t-2.36-7.39A8.11,8.11,0,0,0,455.18,366.73Z"/><path class="cls-3" d="M485.9,388l-13.29-18a11.37,11.37,0,0,1-.72-1.09l-.2-.31h-.06c0,.27,0,.6,0,1V388h-1.54V365.7h1.18l13.2,17.89c.29.39.61.87.95,1.43h.08c0-.73-.08-1.35-.08-1.87V365.7H487V388H485.9Z"/><path class="cls-3" d="M507.26,388l-2.55-6.94H495L492.48,388h-1.7l8.42-22.33h1.46L509,388Zm-6.85-18.68a6.87,6.87,0,0,1-.28-.92c-.07-.26-.15-.52-.23-.78h-.06c-.18.69-.35,1.24-.51,1.67l-3.75,10.35h8.61Z"/><path class="cls-3" d="M512.77,388V365.7h1.54v20.92h9V388Z"/><path class="cls-3" d="M536.1,388V365.7h1.54V388H536.1Z"/><path class="cls-3" d="M559.16,388l-13.29-18a11.37,11.37,0,0,1-.72-1.09l-.2-.31h-.06c0,.27,0,.6,0,1V388h-1.54V365.7h1.18l13.2,17.89c.29.39.61.87,1,1.43h.08c0-.73-.08-1.35-.08-1.87V365.7h1.54V388h-1.09Z"/><path class="cls-3" d="M573.06,388h-1.15l-8.16-22.33h1.73l6.46,18a13,13,0,0,1,.58,2.12h.06a15.64,15.64,0,0,1,.64-2.15l6.87-17.95h1.65Z"/><path class="cls-3" d="M585.24,388V365.7h10.43v1.42h-8.89v8.95H595v1.4h-8.25v9.15h9.4V388Z"/><path class="cls-3" d="M600.48,387.23v-1.76a9,9,0,0,0,4.86,1.53,6.26,6.26,0,0,0,4-1.08,3.66,3.66,0,0,0,1.35-3,3.93,3.93,0,0,0-.91-2.73,17.82,17.82,0,0,0-4-2.78,14.05,14.05,0,0,1-4.3-3.31,5.35,5.35,0,0,1-.9-3.07,5.19,5.19,0,0,1,1.84-4,7.05,7.05,0,0,1,4.9-1.65,12.38,12.38,0,0,1,4,.67v1.62a10.07,10.07,0,0,0-4.19-.89,5.28,5.28,0,0,0-3.6,1.15,3.69,3.69,0,0,0-1.33,2.93,3.89,3.89,0,0,0,.91,2.72,18.55,18.55,0,0,0,3.93,2.76,14.09,14.09,0,0,1,4.17,3.15,5.13,5.13,0,0,1,1,3.17,5.4,5.4,0,0,1-1.78,4.19,7.24,7.24,0,0,1-5,1.62,11.5,11.5,0,0,1-2.65-.36A8.56,8.56,0,0,1,600.48,387.23Z"/><path class="cls-3" d="M623.08,367.12V388h-1.53V367.12H615.1V365.7h14.42v1.42Z"/><path class="cls-3" d="M652.68,388V372.17c0-.38.06-1.48.17-3.28h-.06q-.48,1.26-.81,1.95L644,388h-.5l-8-17.09a12.9,12.9,0,0,1-.73-2.1h-.08c.07,1,.11,2,.11,3V388h-1.54V365.7h1.43l8.33,18a3.25,3.25,0,0,1,.17.42c.06.18.13.35.2.53l.33.9h.09l.17-.5s.19-.53.53-1.48l8.21-17.86h1.37V388Z"/><path class="cls-3" d="M659.89,388V365.7h10.43v1.42h-8.89v8.95h8.25v1.4h-8.25v9.15h9.4V388Z"/><path class="cls-3" d="M691.62,388l-13.29-18a11.37,11.37,0,0,1-.72-1.09l-.2-.31h-.06c0,.27,0,.6,0,1V388h-1.54V365.7H677l13.2,17.89c.29.39.61.87.95,1.43h.08c0-.73-.08-1.35-.08-1.87V365.7h1.54V388h-1.09Z"/><path class="cls-3" d="M704.49,367.12V388H703V367.12h-6.45V365.7h14.42v1.42Z"/></svg>